<?xml version="1.0" encoding="UTF-8" standalone="no"?>
<svg
   xmlns:ns="&amp;#38;ns_sfw;"
   xmlns:dc="http://purl.org/dc/elements/1.1/"
   xmlns:cc="http://creativecommons.org/ns#"
   xmlns:rdf="http://www.w3.org/1999/02/22-rdf-syntax-ns#"
   xmlns:svg="http://www.w3.org/2000/svg"
   xmlns="http://www.w3.org/2000/svg"
   xmlns:sodipodi="http://sodipodi.sourceforge.net/DTD/sodipodi-0.dtd"
   xmlns:inkscape="http://www.inkscape.org/namespaces/inkscape"
   version="1.1"
   id="Milano"
   x="0px"
   y="0px"
   width="220.232px"
   height="146.789px"
   viewBox="0 0 220.232 146.789"
   enable-background="new 0 0 220.232 146.789"
   xml:space="preserve"
   inkscape:version="0.48.4 r9939"
   sodipodi:docname="Milano_linea_M1.svg"><defs
   id="defs13" /><sodipodi:namedview
   pagecolor="#ffffff"
   bordercolor="#666666"
   borderopacity="1"
   objecttolerance="10"
   gridtolerance="10"
   guidetolerance="10"
   inkscape:pageopacity="0"
   inkscape:pageshadow="2"
   inkscape:window-width="1366"
   inkscape:window-height="705"
   id="namedview11"
   showgrid="false"
   inkscape:zoom="1.6077499"
   inkscape:cx="110.116"
   inkscape:cy="73.394502"
   inkscape:window-x="-8"
   inkscape:window-y="-8"
   inkscape:window-maximized="1"
   inkscape:current-layer="Milano" />
<metadata
   id="metadata3">
	<ns:sfw>
		<ns:slices />
		<ns:sliceSourceBounds
   x="310.367"
   y="223.577"
   width="220.172"
   height="146.789"
   bottomLeftOrigin="true" />
	</ns:sfw>
<rdf:RDF><cc:Work
     rdf:about=""><dc:format>image/svg+xml</dc:format><dc:type
       rdf:resource="http://purl.org/dc/dcmitype/StillImage" /><dc:title></dc:title></cc:Work></rdf:RDF></metadata>
<path
   fill="#E41818"
   d="M220.24,134.547c0,6.75-5.484,12.242-12.227,12.242H12.295c-6.773,0-12.227-5.492-12.227-12.242V12.227  C0.068,5.477,5.521,0,12.295,0h195.719c6.742,0,12.227,5.477,12.227,12.227V134.547"
   id="path5"
   style="fill:#ee2e24;fill-opacity:1" />
<path
   fill="#FFFFFF"
   d="M181.506,111.719h-14.898V58.242h-14.352V46.945c10.719-0.352,16.328-4.898,16.43-11.883h12.82V111.719"
   id="path7" />
<polygon
   fill="#FFFFFF"
   points="115.037,111.719 98.74,58.859 82.412,111.719 67.732,111.719 51.436,58.859 35.115,111.719   20.443,111.719 44.1,35.078 58.764,35.078 75.084,87.93 91.404,35.078 106.068,35.078 129.732,111.719 "
   id="polygon9" />
</svg>