<?xml version="1.0" encoding="UTF-8" standalone="no"?>
<svg
   xmlns:ns="&amp;#38;ns_sfw;"
   xmlns:dc="http://purl.org/dc/elements/1.1/"
   xmlns:cc="http://creativecommons.org/ns#"
   xmlns:rdf="http://www.w3.org/1999/02/22-rdf-syntax-ns#"
   xmlns:svg="http://www.w3.org/2000/svg"
   xmlns="http://www.w3.org/2000/svg"
   xmlns:sodipodi="http://sodipodi.sourceforge.net/DTD/sodipodi-0.dtd"
   xmlns:inkscape="http://www.inkscape.org/namespaces/inkscape"
   version="1.1"
   id="Milano"
   x="0px"
   y="0px"
   width="220.232px"
   height="146.789px"
   viewBox="0 0 220.232 146.789"
   enable-background="new 0 0 220.232 146.789"
   xml:space="preserve"
   inkscape:version="0.48.4 r9939"
   sodipodi:docname="Milano M.svg"><defs
   id="defs13" /><sodipodi:namedview
   pagecolor="#ffffff"
   bordercolor="#666666"
   borderopacity="1"
   objecttolerance="10"
   gridtolerance="10"
   guidetolerance="10"
   inkscape:pageopacity="0"
   inkscape:pageshadow="2"
   inkscape:window-width="1366"
   inkscape:window-height="705"
   id="namedview11"
   showgrid="false"
   inkscape:zoom="1.6077499"
   inkscape:cx="110.116"
   inkscape:cy="73.394502"
   inkscape:window-x="-8"
   inkscape:window-y="-8"
   inkscape:window-maximized="1"
   inkscape:current-layer="Milano" />
<metadata
   id="metadata3">
	<ns:sfw>
		<ns:slices />
		<ns:sliceSourceBounds
   x="310.344"
   y="223.577"
   width="220.188"
   height="146.789"
   bottomLeftOrigin="true" />
	</ns:sfw>
<rdf:RDF><cc:Work
     rdf:about=""><dc:format>image/svg+xml</dc:format><dc:type
       rdf:resource="http://purl.org/dc/dcmitype/StillImage" /><dc:title></dc:title></cc:Work></rdf:RDF></metadata>
<path
   fill="#6A9418"
   d="M220.232,134.547c0,6.766-5.492,12.242-12.227,12.242H12.287c-6.766,0-12.242-5.477-12.242-12.242V12.219  C0.045,5.461,5.521,0,12.287,0h195.719c6.734,0,12.227,5.461,12.227,12.219V134.547"
   id="path5"
   style="fill:#5d9732;fill-opacity:1" />
<path
   fill="#FFFFFF"
   d="M194.428,98.656v13.07h-50.211V99.492l23.633-22.727c7.344-7,11.531-11.438,11.531-19.688  c0-4.898-2.898-9.688-8.859-9.688c-6.273,0-10.234,3.859-10.234,12.109h-14.695c-0.117-15.133,9.555-25.508,25.297-25.508  c15.852,0,23.539,10.492,23.539,23.664c0,7.672-2.234,15.844-13.75,26.789l-14.922,14.211H194.428"
   id="path7" />
<polygon
   fill="#FFFFFF"
   points="115.029,111.727 98.725,58.859 82.404,111.727 67.748,111.727 51.428,58.859 35.115,111.727   20.443,111.727 44.068,35.07 58.756,35.07 75.076,87.938 91.365,35.07 106.061,35.07 129.725,111.727 "
   id="polygon9" />
</svg>